ModelForces
version=1
nRows=8
nColumns=71
inDegrees=no

This file contains the forces exerted on a model during a simulation.

A force is a generalized force, meaning that it can be either a force (N) or a torque (Nm).

Units are S.I. units (second, meters, Newtons, ...)
Angles are in degrees.

endheader
time	semimem_r	semiten_r	bifemlh_r	bifemsh_r	sar_r	grac_r	rect_fem_r	vas_med_r	vas_int_r	vas_lat_r	med_gas_r	lat_gas_r	contactForce_femur_lat_meniscii_l.femur_lat_l.force.X	contactForce_femur_lat_meniscii_l.femur_lat_l.force.Y	contactForce_femur_lat_meniscii_l.femur_lat_l.force.Z	contactForce_femur_lat_meniscii_l.femur_lat_l.torque.X	contactForce_femur_lat_meniscii_l.femur_lat_l.torque.Y	contactForce_femur_lat_meniscii_l.femur_lat_l.torque.Z	contactForce_femur_lat_meniscii_l.meniscus_lat_l.force.X	contactForce_femur_lat_meniscii_l.meniscus_lat_l.force.Y	contactForce_femur_lat_meniscii_l.meniscus_lat_l.force.Z	contactForce_femur_lat_meniscii_l.meniscus_lat_l.torque.X	contactForce_femur_lat_meniscii_l.meniscus_lat_l.torque.Y	contactForce_femur_lat_meniscii_l.meniscus_lat_l.torque.Z	contactForce_femur_med_meniscii_l.femur_med_l.force.X	contactForce_femur_med_meniscii_l.femur_med_l.force.Y	contactForce_femur_med_meniscii_l.femur_med_l.force.Z	contactForce_femur_med_meniscii_l.femur_med_l.torque.X	contactForce_femur_med_meniscii_l.femur_med_l.torque.Y	contactForce_femur_med_meniscii_l.femur_med_l.torque.Z	contactForce_femur_med_meniscii_l.meniscus_med_l.force.X	contactForce_femur_med_meniscii_l.meniscus_med_l.force.Y	contactForce_femur_med_meniscii_l.meniscus_med_l.force.Z	contactForce_femur_med_meniscii_l.meniscus_med_l.torque.X	contactForce_femur_med_meniscii_l.meniscus_med_l.torque.Y	contactForce_femur_med_meniscii_l.meniscus_med_l.torque.Z	contactForce_femur_lat_meniscii_r.femur_lat_r.force.X	contactForce_femur_lat_meniscii_r.femur_lat_r.force.Y	contactForce_femur_lat_meniscii_r.femur_lat_r.force.Z	contactForce_femur_lat_meniscii_r.femur_lat_r.torque.X	contactForce_femur_lat_meniscii_r.femur_lat_r.torque.Y	contactForce_femur_lat_meniscii_r.femur_lat_r.torque.Z	contactForce_femur_lat_meniscii_r.meniscus_lat_r.force.X	contactForce_femur_lat_meniscii_r.meniscus_lat_r.force.Y	contactForce_femur_lat_meniscii_r.meniscus_lat_r.force.Z	contactForce_femur_lat_meniscii_r.meniscus_lat_r.torque.X	contactForce_femur_lat_meniscii_r.meniscus_lat_r.torque.Y	contactForce_femur_lat_meniscii_r.meniscus_lat_r.torque.Z	contactForce_femur_med_meniscii_r.femur_med_r.force.X	contactForce_femur_med_meniscii_r.femur_med_r.force.Y	contactForce_femur_med_meniscii_r.femur_med_r.force.Z	contactForce_femur_med_meniscii_r.femur_med_r.torque.X	contactForce_femur_med_meniscii_r.femur_med_r.torque.Y	contactForce_femur_med_meniscii_r.femur_med_r.torque.Z	contactForce_femur_med_meniscii_r.meniscus_med_r.force.X	contactForce_femur_med_meniscii_r.meniscus_med_r.force.Y	contactForce_femur_med_meniscii_r.meniscus_med_r.force.Z	contactForce_femur_med_meniscii_r.meniscus_med_r.torque.X	contactForce_femur_med_meniscii_r.meniscus_med_r.torque.Y	contactForce_femur_med_meniscii_r.meniscus_med_r.torque.Z	aACL_R	pACL_R	aPCL_R	pPCL_R	aMCL_R	aLCL_R	aPCL_L	pPCL_L	aMCL_L	aLCL_L
      0.27852354	     29.01149350	     44.79575883	     56.44747080	     68.59681888	     13.81000887	     16.00732377	      2.47290670	      0.00000000	      1.28600446	      0.00000000	      0.00000000	      0.00000000	     -4.16355187	      7.99135389	     -1.91814979	      0.98053446	      0.12363012	     -1.60288624	      4.16355187	     -7.99135389	      1.91814979	     -0.36241771	     -0.17761513	      0.03628572	      0.00000000	      0.00000000	      0.00000000	      0.00000000	      0.00000000	      0.00000000	      0.00000000	      0.00000000	      0.00000000	      0.00000000	      0.00000000	      0.00000000	     11.73357784	     -1.85007029	      2.36150654	     -0.93147451	      0.29259169	      4.85977885	    -11.73357784	      1.85007029	     -2.36150654	      0.02693648	     -0.34925266	     -0.40980576	    141.71929297	     59.91045234	     67.32276530	    -26.63149484	     -3.86212233	     59.80318309	   -141.71929297	    -59.91045234	    -67.32276530	      1.11691376	      2.71288539	     -5.07043883	      0.00000000	      0.00000000	    158.35195951	      1.52645774	      0.00000000	      0.00000000	      6.87474076	      0.00000000	     19.79066570	     38.79256084
      0.27983012	     29.28895539	     44.44958865	     56.20599374	     38.26226525	     13.75781129	     15.89386061	      2.36605525	      0.00000000	      1.30705135	      0.00000000	      0.00000000	      0.00000000	     -4.21161319	      7.59345823	     -2.03856840	      1.02313567	      0.12749717	     -1.63019727	      4.21161319	     -7.59345823	      2.03856840	     -0.35177531	     -0.18099760	      0.04390592	      0.00000000	      0.00000000	      0.00000000	      0.00000000	      0.00000000	      0.00000000	      0.00000000	      0.00000000	      0.00000000	      0.00000000	      0.00000000	      0.00000000	     10.18207137	     -1.46645278	      2.03905948	     -0.80723645	      0.25342591	      4.21582920	    -10.18207137	      1.46645278	     -2.03905948	      0.02656697	     -0.30206033	     -0.35252248	    141.33553632	     60.09779458	     67.87247549	    -26.87793109	     -3.86649638	     59.67441483	   -141.33553632	    -60.09779458	    -67.87247549	      1.15442556	      2.72294712	     -5.09602776	      0.00000000	      0.00000000	    155.80925573	      1.76321602	      0.00000000	      0.00000000	      6.67142808	      0.00000000	     19.73859491	     38.42771379
      0.28113670	     29.56550068	     44.10701448	     55.96665735	     66.17054230	     13.70898894	     15.78765618	      2.30714850	      0.00000000	      1.31101497	      0.00000000	      0.00000000	      0.00000000	     -4.22690705	      7.26922243	     -2.15186008	      1.06425578	      0.13062743	     -1.64227547	      4.22690705	     -7.26922243	      2.15186008	     -0.34360127	     -0.18310948	      0.04940083	      0.00000000	      0.00000000	      0.00000000	      0.00000000	      0.00000000	      0.00000000	      0.00000000	      0.00000000	      0.00000000	      0.00000000	      0.00000000	      0.00000000	      8.53572363	     -1.15294912	      1.75318691	     -0.69662682	      0.21265308	      3.53338541	     -8.53572363	      1.15294912	     -1.75318691	      0.02569601	     -0.25360430	     -0.29376204	    140.03855104	     59.93067763	     68.76634779	    -27.27401005	     -3.84489951	     59.16515906	   -140.03855104	    -59.93067763	    -68.76634779	      1.20956575	      2.70519938	     -5.09321640	      0.00000000	      0.00000000	    153.65378796	      2.34185688	      0.00000000	      0.00000000	      6.46446622	      0.00000000	     19.68659541	     38.08116000
      0.28159103	     29.65621402	     43.98148795	     55.87821474	     71.75081426	     13.68807547	     15.74629211	      2.29525223	      0.00000000	      1.31558132	      0.00000000	      0.00000000	      0.00000000	     -4.23600778	      7.14719994	     -2.19386817	      1.07951237	      0.13181322	     -1.64821370	      4.23600778	     -7.14719994	      2.19386817	     -0.34055344	     -0.18396974	      0.05148657	      0.00000000	      0.00000000	      0.00000000	      0.00000000	      0.00000000	      0.00000000	      0.00000000	      0.00000000	      0.00000000	      0.00000000	      0.00000000	      0.00000000	      8.02556118	     -1.05700951	      1.64644508	     -0.65481824	      0.19985021	      3.32191022	     -8.02556118	      1.05700951	     -1.64644508	      0.02480705	     -0.23822471	     -0.27557043	    140.68070518	     60.05749922	     68.91573249	    -27.33848220	     -3.86557655	     59.44452584	   -140.68070518	    -60.05749922	    -68.91573249	      1.21745595	      2.72644601	     -5.12982020	      0.00000000	      0.00000000	    152.67542562	      1.93288995	      0.00000000	      0.00000000	      6.39276483	      0.00000000	     19.66726049	     37.96333441
      0.28323581	     29.99216405	     43.53365341	     55.53117185	      5.61812386	     13.59589224	     15.59496163	      2.27926839	      0.00000000	      1.34832389	      0.00000000	      0.00000000	      0.00000000	     -4.21043638	      6.77481757	     -2.30254372	      1.11753580	      0.13431377	     -1.64406895	      4.21043638	     -6.77481757	      2.30254372	     -0.33029606	     -0.18461433	      0.05652039	      0.00000000	      0.00000000	      0.00000000	      0.00000000	      0.00000000	      0.00000000	      0.00000000	      0.00000000	      0.00000000	      0.00000000	      0.00000000	      0.00000000	      6.39502966	     -0.79769323	      1.33633168	     -0.53299018	      0.15923230	      2.64667234	     -6.39502966	      0.79769323	     -1.33633168	      0.02180862	     -0.18980064	     -0.21865452	    141.25823149	     61.89833182	     69.76761004	    -27.66846056	     -3.89486488	     59.71119535	   -141.25823149	    -61.89833182	    -69.76761004	      1.22732867	      2.75802824	     -5.16732008	      0.00000000	      0.00000000	    149.74927272	      2.46642095	      0.00000000	      0.00000000	      6.15387138	      0.00000000	     19.60149708	     37.55591371
      0.28488059	     30.31288736	     43.07982531	     55.21171440	     38.62011925	     13.52234135	     15.45411125	      2.26966919	      0.00000000	      1.33671353	      0.00000000	      0.00000000	      0.00000000	     -4.25163203	      6.34661310	     -2.42657117	      1.16102909	      0.13835743	     -1.66916697	      4.25163203	     -6.34661310	      2.42657117	     -0.31865717	     -0.18767737	      0.06423979	      0.00000000	      0.00000000	      0.00000000	      0.00000000	      0.00000000	      0.00000000	      0.00000000	      0.00000000	      0.00000000	      0.00000000	      0.00000000	      0.00000000	      4.60093379	     -0.52793868	      1.00847602	     -0.40391510	      0.11468729	      1.90350042	     -4.60093379	      0.52793868	     -1.00847602	      0.01833401	     -0.13700572	     -0.15606146	    135.96782046	     60.77841755	     70.90998780	    -28.19336017	     -3.76520597	     57.50120439	   -135.96782046	    -60.77841755	    -70.90998780	      1.31434944	      2.64175632	     -4.99855824	      0.00000000	      0.00000000	    148.80604682	      6.32761050	      0.00000000	      0.00000000	      5.92744036	      0.00000000	     19.52779774	     37.16640253
      0.28721372	     30.83488085	     42.49982754	     54.53525788	     80.41219928	     13.37647867	     15.27443748	      2.28261570	      0.00000000	      1.37411501	      0.00000000	      0.00000000	      0.00000000	     -3.32419903	      6.99997434	     -1.28558703	      0.69248824	      0.09525996	     -1.26135318	      3.32419903	     -6.99997434	      1.28558703	     -0.30397428	     -0.13786877	      0.02475213	      0.00000000	      0.00000000	      0.00000000	      0.00000000	      0.00000000	      0.00000000	      0.00000000	      0.00000000	      0.00000000	      0.00000000	      0.00000000	      0.00000000	      2.68694458	     -0.29935932	      0.58750561	     -0.23553306	      0.06664491	      1.11149275	     -2.68694458	      0.29935932	     -0.58750561	      0.01092998	     -0.07950170	     -0.09082636	    136.29381218	     59.66410341	     70.61583275	    -28.13168292	     -3.79917169	     57.69052089	   -136.29381218	    -59.66410341	    -70.61583275	      1.36231024	      2.69690304	     -5.09232048	      0.00000000	      0.00000000	    143.97433685	      2.65014722	      0.00000000	      0.00000000	      6.00040000	      0.00000000	     19.48012517	     36.56293056
      0.28954686	     30.54443263	     41.14868369	     54.72033395	    103.26709058	     13.21464422	     14.89705375	      2.31712313	      0.00000000	      1.38118334	      0.00000000	      0.00000000	      0.00000000	     -3.24190201	      6.36231505	     -1.37348198	      0.71595701	      0.09630084	     -1.23846558	      3.24190201	     -6.36231505	      1.37348198	     -0.28296505	     -0.13625883	      0.03135630	      0.00000000	      0.00000000	      0.00000000	      0.00000000	      0.00000000	      0.00000000	      0.00000000	      0.00000000	      0.00000000	      0.00000000	      0.00000000	      0.00000000	      1.49200389	     -0.15038036	      0.33306312	     -0.13398134	      0.03701503	      0.61701170	     -1.49200389	      0.15038036	     -0.33306312	      0.00669728	     -0.04415093	     -0.05004643	    133.20554212	     59.52324282	     71.44252688	    -28.49708513	     -3.73645572	     56.41127391	   -133.20554212	    -59.52324282	    -71.44252688	      1.41247243	      2.64957777	     -5.00610702	      0.00000000	      0.00000000	    140.36941923	      3.79138598	      0.00000000	      0.00000000	      6.34210337	      0.00000000	     19.49334694	     35.91638885
